<?xml version="1.0" standalone="no"?>
<!DOCTYPE svg PUBLIC "-//W3C//DTD SVG 20010904//EN"
 "http://www.w3.org/TR/2001/REC-SVG-20010904/DTD/svg10.dtd">
<svg version="1.0" xmlns="http://www.w3.org/2000/svg"
 width="400.000000pt" height="400.000000pt" viewBox="0 0 400.000000 400.000000"
 preserveAspectRatio="xMidYMid meet">
<metadata>
Created by potrace 1.14, written by Peter Selinger 2001-2017
</metadata>
<g transform="translate(0.000000,400.000000) scale(0.100000,-0.100000)"
fill="#000000" stroke="none">
<path d="M1460 2770 c11 -7 3 -10 -30 -11 -25 -1 -54 -1 -65 0 -17 2 -17 0 -5
-8 12 -8 8 -11 -18 -11 -19 0 -31 -4 -27 -10 3 -5 0 -7 -8 -4 -8 3 -21 -1 -28
-8 -8 -7 -21 -14 -29 -16 -8 -2 -18 -8 -21 -14 -3 -5 -10 -10 -15 -11 -5 -1
-8 -6 -6 -10 1 -5 -2 -6 -7 -3 -5 4 -15 0 -23 -7 -7 -7 -17 -15 -23 -18 -5 -2
-9 -8 -7 -12 1 -5 -2 -6 -6 -3 -12 7 -54 -29 -45 -38 3 -3 -1 -6 -10 -6 -10 0
-17 -7 -17 -16 0 -9 -5 -12 -12 -8 -7 4 -10 4 -6 -1 4 -4 -4 -22 -17 -40 -14
-17 -25 -37 -25 -43 0 -7 -4 -12 -10 -12 -5 0 -10 -9 -10 -20 0 -11 -4 -20
-10 -20 -5 0 -10 -12 -10 -26 0 -14 -4 -23 -10 -19 -5 3 -10 -3 -10 -14 0 -11
-4 -23 -10 -26 -5 -3 -10 -19 -10 -35 0 -16 -4 -31 -8 -34 -5 -3 -10 -33 -11
-68 -1 -34 -8 -69 -14 -77 -9 -12 -9 -13 1 -7 9 5 12 -9 12 -59 0 -46 3 -64
11 -59 7 4 7 -1 -1 -16 -8 -15 -8 -20 -1 -16 7 5 11 -5 11 -29 0 -22 4 -34 10
-30 6 4 10 -8 10 -29 0 -20 5 -36 10 -36 6 0 10 -9 10 -20 0 -11 5 -20 10 -20
6 0 10 -12 10 -26 0 -14 4 -23 10 -19 6 3 10 -1 10 -10 0 -9 5 -13 10 -10 6 3
10 0 10 -8 0 -22 86 -107 107 -107 15 0 16 -2 3 -10 -13 -9 -13 -10 1 -10 8 0
24 -8 35 -17 41 -37 146 -83 191 -83 l44 0 -3 39 c-1 22 -5 38 -10 35 -4 -3
-8 0 -8 6 0 6 -4 8 -10 5 -12 -7 -53 19 -43 28 3 4 -1 7 -10 7 -9 0 -17 5 -17
10 0 6 -6 10 -14 10 -7 0 -23 14 -36 30 -13 17 -29 30 -36 30 -8 0 -14 9 -14
20 0 11 -4 20 -10 20 -5 0 -10 7 -10 16 0 8 -4 13 -8 10 -4 -2 -9 7 -10 22 -1
15 -7 29 -12 30 -6 2 -10 10 -10 18 0 9 -5 12 -10 9 -6 -4 -10 -3 -9 2 4 20
-2 44 -9 39 -4 -2 -9 10 -10 27 -2 17 -7 36 -12 41 -6 6 -10 25 -10 44 0 18
-4 31 -8 28 -5 -3 -9 1 -9 9 0 8 3 12 7 10 4 -2 7 2 7 10 0 8 -4 12 -9 9 -4
-3 -8 27 -8 66 0 45 4 69 10 65 6 -3 10 -1 10 4 0 6 -4 11 -10 11 -5 0 -10 5
-10 11 0 5 5 7 10 4 6 -4 10 10 10 34 0 22 5 43 10 46 6 3 10 17 10 31 0 13 6
24 13 24 8 0 7 4 -3 10 -10 6 -11 10 -2 10 6 0 12 7 12 15 0 20 165 185 185
185 8 0 15 8 15 17 0 9 3 14 6 10 3 -3 17 5 31 17 15 14 33 22 44 19 10 -3 19
0 19 6 0 6 17 11 40 11 22 0 40 4 40 9 0 12 213 13 220 1 3 -4 21 -10 40 -12
36 -5 63 -13 92 -29 10 -5 25 -9 33 -9 8 0 15 -4 15 -10 0 -5 9 -10 20 -10 11
0 20 -4 20 -10 0 -5 9 -10 21 -10 11 0 17 -4 14 -10 -3 -5 1 -10 9 -10 9 0 16
-4 16 -10 0 -5 7 -10 15 -10 9 0 18 -7 21 -15 4 -8 10 -12 15 -9 5 3 9 2 8 -3
-4 -21 2 -33 18 -33 9 0 13 -3 10 -6 -4 -4 1 -14 11 -23 9 -9 23 -28 31 -43 8
-16 18 -28 23 -28 4 0 8 -9 8 -20 0 -11 5 -20 10 -20 6 0 10 -13 10 -30 0 -17
5 -30 13 -30 8 0 7 -4 -3 -10 -10 -6 -11 -10 -2 -10 8 0 12 -17 12 -50 0 -33
4 -50 13 -50 8 0 8 -3 -2 -9 -13 -8 -13 -12 0 -27 10 -13 11 -16 1 -10 -10 6
-13 3 -12 -10 5 -45 -1 -115 -9 -110 -4 3 -8 -2 -8 -12 0 -52 -4 -73 -13 -67
-5 3 -10 -1 -10 -10 0 -8 -4 -24 -10 -35 -5 -11 -14 -29 -20 -40 -5 -11 -10
-25 -10 -31 0 -6 -9 -20 -21 -30 -11 -9 -21 -21 -22 -26 -1 -4 -6 -7 -10 -5
-5 1 -6 -2 -2 -8 3 -5 -1 -13 -9 -16 -9 -3 -16 -12 -16 -20 0 -8 -7 -14 -16
-14 -8 0 -13 -4 -10 -9 4 -5 -7 -15 -24 -23 -16 -7 -30 -16 -30 -20 0 -5 -6
-8 -13 -8 -7 0 -23 -9 -35 -20 -12 -11 -28 -20 -36 -20 -8 0 -16 -4 -18 -10
-1 -5 -15 -11 -30 -12 -15 -1 -24 -6 -22 -10 3 -4 -3 -8 -13 -8 -20 0 -80 -20
-100 -33 -10 -7 -13 76 -13 402 l0 411 -80 0 -80 0 0 -750 0 -750 80 0 80 0 0
166 c0 172 5 194 45 194 9 0 13 5 10 10 -3 6 1 10 9 10 9 0 16 5 16 10 0 6 5
10 10 10 6 0 10 -73 10 -200 l0 -200 60 0 60 0 0 300 0 300 -60 0 -60 0 0 -43
c0 -43 -21 -77 -48 -77 -7 0 -12 -5 -12 -11 0 -5 -4 -7 -10 -4 -5 3 -10 -1
-10 -9 0 -9 -4 -16 -9 -16 -4 0 -9 36 -10 80 l-2 80 28 0 c16 0 34 5 39 10 6
6 24 12 41 13 17 1 29 5 26 10 -2 4 5 7 16 7 11 0 23 4 26 10 3 5 15 10 26 10
10 0 19 5 19 10 0 6 9 10 20 10 11 0 20 5 20 10 0 6 9 10 20 10 11 0 20 5 20
10 0 6 7 10 16 10 8 0 12 5 9 10 -3 6 1 10 10 10 19 0 47 25 38 34 -4 3 -1 6
6 6 15 0 81 65 81 80 0 6 5 8 10 5 6 -3 10 1 10 10 0 10 5 13 12 9 6 -4 8 -3
4 4 -3 6 4 21 16 34 13 13 24 30 26 38 2 8 8 17 13 18 5 2 9 15 9 28 0 14 4
22 10 19 9 -5 15 23 11 48 0 4 4 7 9 7 6 0 10 13 10 29 0 17 4 32 9 35 10 7 9
31 -2 42 -12 12 -8 26 6 18 7 -5 6 0 -3 11 -8 10 -10 16 -4 12 17 -10 18 124
2 135 -10 6 -10 8 0 8 6 0 12 9 12 21 0 12 -4 17 -11 14 -6 -4 -5 2 3 14 10
16 10 23 0 33 -6 6 -12 27 -12 46 0 19 -4 31 -10 27 -6 -3 -10 4 -10 18 0 13
-9 33 -20 45 -11 12 -20 26 -20 33 0 6 -13 24 -30 39 -16 15 -30 33 -30 39 0
6 -4 11 -10 11 -5 0 -10 7 -10 16 0 8 -4 12 -10 9 -5 -3 -10 -1 -10 5 0 13
-50 59 -65 60 -6 0 -17 9 -25 20 -8 11 -22 20 -32 20 -10 0 -18 5 -18 10 0 6
-9 10 -20 10 -11 0 -20 5 -20 10 0 6 -9 10 -20 10 -11 0 -20 5 -20 10 0 6 -12
10 -26 10 -14 0 -23 4 -20 8 2 4 -7 9 -22 10 -15 1 -28 7 -30 12 -2 6 -17 10
-32 10 -16 0 -32 5 -35 10 -4 6 -60 10 -136 10 -101 0 -129 -3 -123 -12 6 -10
4 -10 -7 0 -7 6 -18 12 -23 12 -6 0 -4 -5 4 -10z"/>
<path d="M1990 1080 l0 -260 60 0 60 0 0 123 c0 105 3 126 18 143 10 10 21 27
25 37 3 9 11 17 17 17 6 0 8 5 5 10 -3 6 -1 10 4 10 7 0 11 -57 11 -170 l0
-170 60 0 60 0 0 110 c0 81 3 110 13 110 8 0 7 4 -3 10 -10 6 -11 10 -2 10 6
0 12 7 12 16 0 9 5 12 12 8 6 -4 8 -3 4 4 -3 6 1 17 9 25 8 9 15 23 15 32 0 9
5 13 10 10 6 -4 10 -72 10 -171 l0 -164 60 0 60 0 0 260 0 260 -60 0 c-58 0
-60 -1 -60 -25 0 -22 -57 -95 -75 -95 -3 0 -5 27 -5 60 l0 60 -60 0 -60 0 0
-37 c0 -20 -3 -33 -6 -30 -4 3 -19 -7 -34 -23 -16 -17 -31 -30 -34 -30 -3 0
-6 27 -6 60 l0 60 -60 0 -60 0 0 -260z"/>
<path d="M3991 774 c0 -11 3 -14 6 -6 3 7 2 16 -1 19 -3 4 -6 -2 -5 -13z"/>
</g>
</svg>
