<?xml version="1.0" standalone="no"?>
<!DOCTYPE svg PUBLIC "-//W3C//DTD SVG 20010904//EN"
 "http://www.w3.org/TR/2001/REC-SVG-20010904/DTD/svg10.dtd">
<svg version="1.0" xmlns="http://www.w3.org/2000/svg"
 width="500.000000pt" height="500.000000pt" viewBox="0 0 500.000000 500.000000"
 preserveAspectRatio="xMidYMid meet">
<metadata>
Created by potrace 1.14, written by Peter Selinger 2001-2017
</metadata>
<g transform="translate(0.000000,500.000000) scale(0.100000,-0.100000)"
fill="#000000" stroke="none">
<path d="M2295 4285 c-211 -25 -357 -71 -582 -184 -207 -103 -385 -244 -549
-432 -81 -94 -184 -228 -184 -242 0 -2 147 -7 328 -10 260 -3 339 -8 384 -21
91 -25 211 -91 274 -149 57 -53 57 -54 65 -127 10 -90 44 -163 106 -227 l46
-47 -24 -15 c-46 -29 -125 -116 -149 -166 -18 -37 -25 -72 -28 -131 -5 -97 17
-157 86 -242 24 -30 41 -59 39 -66 -7 -18 -137 -121 -182 -144 -87 -44 -144
-54 -335 -61 l-185 -6 -3 -333 -2 -332 -181 0 -181 0 74 -79 c112 -120 306
-280 438 -359 188 -114 362 -180 615 -233 97 -21 137 -24 335 -23 205 0 236 2
351 27 389 82 662 235 989 554 l115 112 -177 1 -178 0 0 413 c0 256 -4 406
-10 396 -10 -17 -50 -112 -145 -349 -90 -225 -177 -420 -186 -420 -4 0 -13 17
-19 38 -15 43 -79 202 -159 392 -32 74 -73 172 -92 217 l-34 82 -3 -294 -2
-295 -28 -14 c-16 -8 -34 -22 -41 -30 -17 -20 -31 -11 -31 19 0 40 -46 131
-90 179 l-43 46 45 48 c63 67 91 146 86 237 -6 85 -30 143 -88 208 l-43 48 41
42 c52 53 95 146 100 217 7 96 -67 246 -141 287 -17 9 -14 15 31 61 132 135
136 339 10 477 -26 29 -48 56 -48 59 0 3 22 6 50 6 l50 0 54 -108 c54 -108
166 -355 166 -367 0 -4 38 -95 84 -203 46 -108 94 -225 106 -259 20 -55 40
-82 40 -53 0 9 80 201 252 605 45 105 99 234 121 288 l40 97 171 -2 171 -3 5
-929 5 -929 61 129 c75 157 128 317 156 472 16 95 21 158 21 332 0 194 -3 227
-26 340 -56 265 -162 514 -293 690 -212 283 -419 456 -714 599 -224 108 -357
146 -600 171 -119 12 -196 11 -335 -5z m226 -188 c48 -32 59 -60 59 -154 l0
-83 98 0 c107 0 131 -9 157 -60 32 -63 11 -145 -48 -180 -25 -16 -50 -20 -118
-20 l-87 0 -4 -98 c-4 -110 -16 -139 -71 -172 -18 -11 -49 -20 -71 -20 -31 0
-45 7 -77 39 l-39 39 0 106 0 106 -86 0 c-69 0 -94 4 -124 21 -66 37 -89 113
-55 179 27 52 49 60 162 60 l103 0 0 86 c0 94 13 129 59 157 38 24 102 21 142
-6z m-279 -770 c-33 -34 -62 -93 -62 -127 0 -19 6 -20 215 -20 205 0 215 -1
215 -19 0 -51 2 -51 -212 -51 -185 0 -199 -1 -196 -17 3 -16 22 -19 178 -23
l175 -5 -46 -27 c-42 -26 -54 -28 -149 -28 -102 0 -103 0 -85 -20 14 -15 31
-20 69 -20 l51 0 -25 -20 c-14 -11 -29 -20 -33 -20 -4 0 -24 -11 -44 -25 -35
-23 -37 -24 -66 -7 -40 23 -102 120 -117 183 -24 97 10 198 96 287 l47 47 9
-28 c9 -25 6 -33 -20 -60z m458 -4 c86 -98 111 -198 71 -288 -42 -96 -104
-153 -251 -232 -97 -53 -234 -136 -287 -176 -51 -38 -93 -115 -93 -171 0 -40
38 -120 69 -143 14 -11 14 -13 -4 -27 -19 -14 -23 -12 -63 27 -66 64 -86 108
-86 197 -1 148 60 222 299 366 88 52 179 110 201 127 62 47 97 109 102 178 4
51 0 65 -27 114 -26 46 -29 58 -19 74 15 25 33 16 88 -46z m-347 -49 c61 -33
130 -35 187 -3 44 25 54 21 65 -23 l7 -28 -191 0 c-105 0 -191 3 -191 7 0 9
62 73 71 73 3 0 27 -12 52 -26z m367 -551 c48 -55 70 -109 70 -178 0 -129 -58
-189 -316 -331 -109 -60 -206 -123 -248 -163 -37 -35 -86 -120 -86 -151 0 -34
22 -91 47 -120 24 -29 25 -33 10 -47 -14 -15 -19 -14 -50 13 -19 16 -48 52
-63 79 -24 43 -28 61 -28 125 1 87 21 136 86 206 39 42 291 212 370 248 89 42
156 144 144 220 -7 40 -49 124 -69 137 -5 4 3 14 19 22 26 14 31 13 55 -4 15
-10 41 -35 59 -56z m-151 -29 c55 -46 44 -54 -74 -54 -120 0 -128 9 -42 52 66
34 78 34 116 2z m41 -105 c0 -11 -5 -29 -10 -40 -10 -18 -23 -19 -198 -19
l-187 1 44 39 44 40 153 0 c149 0 154 -1 154 -21z m-70 -96 c0 -5 -22 -20 -49
-35 -46 -27 -56 -28 -180 -28 -122 0 -131 1 -131 19 0 51 0 51 186 51 96 0
174 -3 174 -7z m-170 -102 c3 -1 -20 -15 -50 -30 l-54 -29 -35 27 -35 26 65 5
c60 5 97 5 109 1z m318 -186 c87 -75 120 -211 74 -306 -35 -72 -76 -106 -222
-183 -106 -56 -283 -166 -313 -194 -36 -35 -87 -137 -87 -176 0 -46 42 -127
85 -164 25 -23 34 -37 27 -44 -15 -15 -61 13 -109 65 -83 90 -108 180 -78 283
26 90 126 182 331 304 87 52 174 108 192 124 83 73 93 172 26 262 -21 29 -22
32 -6 47 23 24 33 22 80 -18z m-109 -61 c6 -14 11 -27 11 -29 0 -3 -31 -5 -70
-5 -39 0 -70 4 -70 10 0 13 91 59 106 53 6 -2 16 -15 23 -29z m31 -103 c0 -16
-8 -38 -17 -50 -17 -21 -24 -22 -193 -19 l-175 3 60 47 60 48 133 0 132 0 0
-29z m-150 -146 c-54 -34 -57 -35 -162 -35 l-108 0 0 28 c0 16 3 32 7 35 3 4
76 7 162 7 l156 0 -55 -35z m-158 -95 c-40 -25 -45 -25 -67 0 -18 20 -17 20
41 20 l59 0 -33 -20z m373 -129 c17 -10 47 -42 68 -72 44 -64 60 -135 46 -199
-20 -89 -60 -131 -228 -236 -118 -73 -182 -137 -218 -214 -28 -59 -29 -60 -70
-60 -23 0 -44 4 -47 8 -9 15 24 134 50 181 42 78 119 156 226 229 108 74 145
116 155 174 6 41 -21 108 -60 150 l-25 27 21 15 c29 20 46 19 82 -3z m-109
-90 c17 -10 34 -28 37 -40 5 -21 2 -21 -136 -21 -135 0 -140 1 -118 17 88 61
164 76 217 44z m44 -111 c0 -6 -10 -21 -23 -33 -21 -22 -30 -23 -195 -24 -107
-1 -172 2 -172 8 0 5 11 21 25 34 24 25 27 25 195 25 111 0 170 -4 170 -10z
m-115 -99 c6 -1 -13 -14 -41 -30 -47 -27 -59 -30 -156 -30 -85 -1 -107 2 -112
14 -14 38 2 44 127 47 114 3 158 3 182 -1z m-160 -131 c-21 -22 -42 -40 -45
-40 -11 0 -80 62 -80 71 0 5 37 9 82 9 l82 0 -39 -40z m365 -122 c0 -86 -66
-173 -154 -202 -52 -17 -151 -22 -160 -8 -3 5 3 24 12 43 16 31 22 35 73 40
31 3 61 9 68 13 21 14 11 25 -26 28 l-38 3 42 29 c26 17 50 26 62 23 14 -3 21
1 25 18 5 21 56 54 84 55 8 0 12 -15 12 -42z"/>
<path d="M911 3298 c-56 -115 -118 -284 -146 -404 -64 -269 -57 -634 18 -904
31 -109 99 -279 142 -356 l34 -59 1 903 c0 496 -2 902 -4 902 -2 0 -22 -37
-45 -82z"/>
<path d="M1400 2710 l0 -230 78 0 c111 0 170 20 220 74 24 26 46 62 52 88 17
62 7 147 -23 194 -52 83 -99 104 -232 104 l-95 0 0 -230z"/>
</g>
</svg>
